<svg width="80" height="84" viewBox="0 0 80 84" fill="none" xmlns="http://www.w3.org/2000/svg">
<path d="M32.785 18.32C32.8475 18.7025 32.6575 19.02 32.02 19.34C30.7276 18.8239 29.3296 18.6275 27.945 18.7675C26.3525 18.895 25.015 19.405 25.195 20.4875C25.445 21.57 26.9775 22.2075 29.715 21.9525C36.4 21.38 36.3375 16.8575 46.1425 15.9675C53.7825 15.2675 58.05 17.6225 58.6225 20.4875C59.0675 22.715 57.2225 24.88 51.6825 25.3275C46.78 25.7725 43.915 24.435 43.66 23.1C43.5325 22.4 43.91 21.38 46.27 21.125C46.52 22.2075 47.8625 23.3525 51.045 23.035C53.3525 22.84 55.25 22 55 20.75C54.75 19.4125 52.325 18.65 48.5 18.9675C40.7325 19.6675 38.8225 23.935 32.2 24.5075C27.5 24.94 23.68 23.2225 23.17 20.675C22.98 19.72 22.98 17.4925 27.945 17.045C30.4925 16.855 32.53 17.295 32.785 18.3175V18.32ZM7.95251 44.935C5.88809 47.4803 4.84456 50.7027 5.02501 53.975C5.13046 55.4697 5.55418 56.9247 6.26776 58.2423C6.98134 59.56 7.9683 60.7099 9.16251 61.615C10.327 62.5512 11.6864 63.2146 13.1409 63.5563C14.5954 63.8981 16.108 63.9096 17.5675 63.59C18.8439 63.2734 20.0968 62.8691 21.3175 62.38C18.7948 62.3767 16.3561 61.4734 14.44 59.8325C13.2692 59.0175 12.2799 57.9687 11.5347 56.7523C10.7894 55.5359 10.3044 54.1783 10.11 52.765C9.8279 51.4746 9.81873 50.1394 10.0831 48.8452C10.3474 47.5511 10.8795 46.3264 11.645 45.25C12.4777 44.1918 13.5167 43.3138 14.6989 42.6691C15.8811 42.0245 17.1819 41.6268 18.5225 41.5C21.3924 41.2992 24.239 42.1349 26.545 43.855C25.8885 43.071 25.164 42.3466 24.38 41.69C23.1559 40.7761 21.743 40.1474 20.2447 39.8498C18.7464 39.5522 17.2004 39.5933 15.72 39.97C12.6109 40.6212 9.8478 42.3883 7.95251 44.9375V44.935ZM42.0825 30.225C35.089 30.282 28.1082 29.6201 21.25 28.25C15.5925 26.85 12.6 25.3225 12.6 23.35C12.6 22.5225 12.9825 21.8225 14.1275 20.995C10.5625 22.395 8.65251 23.5425 8.65251 25.325C8.84251 27.3 12.0275 29.2725 18.5225 30.8C26.19 32.5131 34.0348 33.3037 41.89 33.155C49.7431 33.314 57.5867 32.5233 65.25 30.8C71.75 29.2725 74.865 27.235 74.865 25.325C74.865 23.925 73.465 22.575 70.9175 21.575C71.2139 21.7579 71.4614 22.01 71.6391 22.3095C71.8167 22.6091 71.9191 22.9472 71.9375 23.295C71.9375 25.27 69.0075 26.86 63.0875 28.1975C56.1789 29.625 49.1366 30.3048 42.0825 30.225V30.225ZM65.515 35.7C57.8374 37.3499 49.9999 38.1398 42.1475 38.055C34.2324 38.1172 26.3337 37.3276 18.5875 35.7C13.1125 34.3 10.1825 32.77 9.16501 31.18C10.1982 37.8785 12.3982 44.344 15.665 50.2825C18.02 53.8475 20.3775 56.9675 22.7325 60.3425C23.7042 62.2161 24.4318 64.2065 24.8975 66.265C26.4866 68.4288 28.7885 69.9622 31.3975 70.595C34.7409 71.7984 38.292 72.3179 41.84 72.1225H42.2225C45.8694 72.2806 49.514 71.7627 52.9725 70.595C55.4839 69.8661 57.6938 68.3479 59.275 66.265H59.465C59.8624 64.2132 60.5264 62.2222 61.44 60.3425C63.795 56.9675 66.1525 53.8425 68.5075 50.2825C71.7077 44.3155 73.9013 37.8613 75 31.18C73.7275 32.9625 70.7975 34.5 65.5125 35.7025L65.515 35.7Z" fill="#6F4E37"/>
<path d="M14.3674 76.002C14.3674 75.274 14.5434 74.722 14.8954 74.346C15.2514 73.966 15.7074 73.776 16.2634 73.776C16.8194 73.776 17.2614 73.94 17.5894 74.268C17.9214 74.596 18.0874 75.12 18.0874 75.84C18.0874 76.56 17.9114 77.104 17.5594 77.472C17.2074 77.84 16.7374 78.024 16.1494 78.024C15.6414 78.024 15.2254 77.878 14.9014 77.586C14.7334 77.434 14.6014 77.224 14.5054 76.956C14.4134 76.684 14.3674 76.366 14.3674 76.002ZM16.2454 73.836C15.8414 73.836 15.5094 74.016 15.2494 74.376C14.9934 74.736 14.8654 75.264 14.8654 75.96C14.8654 76.656 14.9874 77.164 15.2314 77.484C15.4754 77.804 15.7994 77.964 16.2034 77.964C16.6114 77.964 16.9434 77.784 17.1994 77.424C17.4594 77.06 17.5894 76.534 17.5894 75.846C17.5894 75.154 17.4654 74.646 17.2174 74.322C16.9734 73.998 16.6494 73.836 16.2454 73.836ZM21.1157 78C20.9517 78 20.8257 77.964 20.7377 77.892C20.6537 77.82 20.6097 77.748 20.6057 77.676L20.5997 77.574V75.69C20.5997 75.374 20.5177 75.172 20.3537 75.084C20.2697 75.044 20.1657 75.024 20.0417 75.024C19.7857 75.024 19.5557 75.126 19.3517 75.33C19.1477 75.53 19.0457 75.71 19.0457 75.87V78H18.6257V75H19.0457V75.684C19.1137 75.512 19.2397 75.352 19.4237 75.204C19.6077 75.052 19.8097 74.976 20.0297 74.976C20.2497 74.976 20.4277 74.998 20.5637 75.042C20.7037 75.082 20.8057 75.14 20.8697 75.216C20.9697 75.34 21.0197 75.5 21.0197 75.696V77.574C21.0197 77.69 21.0417 77.78 21.0857 77.844C21.1337 77.904 21.1817 77.936 21.2297 77.94L21.2957 77.952H21.4817V78H21.1157ZM22.1334 76.536C22.1334 77.032 22.2194 77.396 22.3914 77.628C22.5674 77.86 22.7974 77.976 23.0814 77.976C23.4814 77.976 23.8374 77.916 24.1494 77.796L24.1674 77.838C23.8474 77.962 23.4854 78.024 23.0814 78.024C22.6814 78.024 22.3554 77.904 22.1034 77.664C21.8514 77.424 21.7254 77.054 21.7254 76.554C21.7254 76.054 21.8574 75.666 22.1214 75.39C22.3854 75.114 22.7214 74.976 23.1294 74.976C23.4574 74.976 23.7334 75.074 23.9574 75.27C24.1814 75.466 24.2934 75.756 24.2934 76.14C24.2934 76.16 24.2934 76.18 24.2934 76.2H22.1514C22.1394 76.308 22.1334 76.42 22.1334 76.536ZM23.8854 76.152C23.8814 75.768 23.8074 75.484 23.6634 75.3C23.5194 75.116 23.3334 75.024 23.1054 75.024C22.8774 75.024 22.6734 75.124 22.4934 75.324C22.3174 75.524 22.2054 75.8 22.1574 76.152H23.8854ZM28.2645 75.21C28.2005 75.158 28.0965 75.114 27.9525 75.078C27.8125 75.042 27.7065 75.024 27.6345 75.024C27.5625 75.024 27.5205 75.024 27.5085 75.024C27.2925 75.028 27.1365 75.084 27.0405 75.192C26.9445 75.296 26.8965 75.414 26.8965 75.546C26.8965 75.678 26.9385 75.79 27.0225 75.882C27.1065 75.97 27.2105 76.04 27.3345 76.092C27.4625 76.14 27.5985 76.196 27.7425 76.26C27.8905 76.324 28.0265 76.39 28.1505 76.458C28.2785 76.522 28.3845 76.618 28.4685 76.746C28.5525 76.87 28.5945 77.026 28.5945 77.214C28.5945 77.402 28.5285 77.562 28.3965 77.694C28.2645 77.826 28.1165 77.914 27.9525 77.958C27.7925 78.002 27.6185 78.024 27.4305 78.024C27.0225 78.024 26.7165 77.934 26.5125 77.754L26.5485 77.718C26.6285 77.794 26.7465 77.856 26.9025 77.904C27.0625 77.952 27.2165 77.976 27.3645 77.976C27.6005 77.976 27.7945 77.912 27.9465 77.784C28.1025 77.652 28.1805 77.49 28.1805 77.298C28.1805 77.102 28.1225 76.946 28.0065 76.83C27.8905 76.71 27.7485 76.618 27.5805 76.554C27.4165 76.486 27.2505 76.42 27.0825 76.356C26.9145 76.288 26.7725 76.196 26.6565 76.08C26.5405 75.96 26.4825 75.822 26.4825 75.666C26.4825 75.51 26.5185 75.384 26.5905 75.288C26.6625 75.188 26.7585 75.118 26.8785 75.078C27.0825 75.01 27.2865 74.976 27.4905 74.976C27.8345 74.976 28.1025 75.04 28.2945 75.168L28.2645 75.21ZM29.0137 75.048V75H29.1397V74.4H29.5597V75H30.4777V75.048H29.5597V77.232C29.5597 77.492 29.5877 77.68 29.6437 77.796C29.7037 77.912 29.8257 77.97 30.0097 77.97C30.1977 77.97 30.3877 77.932 30.5797 77.856L30.5977 77.904C30.3977 77.98 30.1677 78.018 29.9077 78.018C29.6517 78.018 29.4597 77.966 29.3317 77.862C29.2037 77.754 29.1397 77.542 29.1397 77.226V75.048H29.0137ZM32.1708 78.024C31.7508 78.024 31.4088 77.904 31.1448 77.664C30.8808 77.424 30.7488 77.054 30.7488 76.554C30.7488 76.054 30.8848 75.666 31.1568 75.39C31.4328 75.114 31.7808 74.976 32.2008 74.976C32.6248 74.976 32.9688 75.096 33.2328 75.336C33.4968 75.576 33.6288 75.946 33.6288 76.446C33.6288 76.946 33.4908 77.334 33.2148 77.61C32.9428 77.886 32.5948 78.024 32.1708 78.024ZM32.2128 75.024C31.9088 75.024 31.6568 75.16 31.4568 75.432C31.2568 75.7 31.1568 76.076 31.1568 76.56C31.1568 77.04 31.2488 77.396 31.4328 77.628C31.6168 77.86 31.8608 77.976 32.1648 77.976C32.4688 77.976 32.7208 77.842 32.9208 77.574C33.1208 77.302 33.2208 76.926 33.2208 76.446C33.2208 75.962 33.1288 75.604 32.9448 75.372C32.7608 75.14 32.5168 75.024 32.2128 75.024ZM34.049 75H34.469V75.744C34.537 75.56 34.663 75.386 34.847 75.222C35.031 75.058 35.239 74.976 35.471 74.976C36.283 74.976 36.689 75.452 36.689 76.404C36.689 77.484 36.165 78.024 35.117 78.024C34.929 78.024 34.713 77.98 34.469 77.892V79.5H34.049V75ZM35.465 75.024C35.217 75.024 34.993 75.132 34.793 75.348C34.593 75.56 34.485 75.752 34.469 75.924V77.838C34.713 77.93 34.927 77.976 35.111 77.976C35.883 77.976 36.269 77.45 36.269 76.398C36.269 75.482 36.001 75.024 35.465 75.024ZM40.3676 75.024C40.0836 75.024 39.8456 75.16 39.6536 75.432C39.4656 75.704 39.3716 76.08 39.3716 76.56C39.3716 77.04 39.4576 77.396 39.6296 77.628C39.8056 77.86 40.0356 77.976 40.3196 77.976C40.6756 77.976 40.9916 77.916 41.2676 77.796L41.2856 77.838C41.0016 77.962 40.6696 78.024 40.2896 78.024C39.9096 78.024 39.5936 77.904 39.3416 77.664C39.0896 77.424 38.9636 77.054 38.9636 76.554C38.9636 76.054 39.0956 75.666 39.3596 75.39C39.6236 75.114 39.9596 74.976 40.3676 74.976C40.5956 74.976 40.8056 75.028 40.9976 75.132C41.1936 75.236 41.3376 75.394 41.4296 75.606H41.0456C40.9856 75.41 40.8936 75.264 40.7696 75.168C40.6496 75.072 40.5156 75.024 40.3676 75.024ZM43.1571 78.024C42.7371 78.024 42.3951 77.904 42.1311 77.664C41.8671 77.424 41.7351 77.054 41.7351 76.554C41.7351 76.054 41.8711 75.666 42.1431 75.39C42.4191 75.114 42.7671 74.976 43.1871 74.976C43.6111 74.976 43.9551 75.096 44.2191 75.336C44.4831 75.576 44.6151 75.946 44.6151 76.446C44.6151 76.946 44.4771 77.334 44.2011 77.61C43.9291 77.886 43.5811 78.024 43.1571 78.024ZM43.1991 75.024C42.8951 75.024 42.6431 75.16 42.4431 75.432C42.2431 75.7 42.1431 76.076 42.1431 76.56C42.1431 77.04 42.2351 77.396 42.4191 77.628C42.6031 77.86 42.8471 77.976 43.1511 77.976C43.4551 77.976 43.7071 77.842 43.9071 77.574C44.1071 77.302 44.2071 76.926 44.2071 76.446C44.2071 75.962 44.1151 75.604 43.9311 75.372C43.7471 75.14 43.5031 75.024 43.1991 75.024ZM45.4914 74.718V75H45.9654V75.048H45.4914V78H45.0714V75.048H44.9454V75H45.0714V74.718C45.0714 74.282 45.1654 73.972 45.3534 73.788C45.5414 73.6 45.8454 73.504 46.2654 73.5V73.548C45.9894 73.552 45.7914 73.646 45.6714 73.83C45.5514 74.01 45.4914 74.306 45.4914 74.718ZM46.9035 74.718V75H47.3775V75.048H46.9035V78H46.4835V75.048H46.3575V75H46.4835V74.718C46.4835 74.282 46.5775 73.972 46.7655 73.788C46.9535 73.6 47.2575 73.504 47.6775 73.5V73.548C47.4015 73.552 47.2035 73.646 47.0835 73.83C46.9635 74.01 46.9035 74.306 46.9035 74.718ZM48.2076 76.536C48.2076 77.032 48.2936 77.396 48.4656 77.628C48.6416 77.86 48.8716 77.976 49.1556 77.976C49.5556 77.976 49.9116 77.916 50.2236 77.796L50.2416 77.838C49.9216 77.962 49.5596 78.024 49.1556 78.024C48.7556 78.024 48.4296 77.904 48.1776 77.664C47.9256 77.424 47.7996 77.054 47.7996 76.554C47.7996 76.054 47.9316 75.666 48.1956 75.39C48.4596 75.114 48.7956 74.976 49.2036 74.976C49.5316 74.976 49.8076 75.074 50.0316 75.27C50.2556 75.466 50.3676 75.756 50.3676 76.14C50.3676 76.16 50.3676 76.18 50.3676 76.2H48.2256C48.2136 76.308 48.2076 76.42 48.2076 76.536ZM49.9596 76.152C49.9556 75.768 49.8816 75.484 49.7376 75.3C49.5936 75.116 49.4076 75.024 49.1796 75.024C48.9516 75.024 48.7476 75.124 48.5676 75.324C48.3916 75.524 48.2796 75.8 48.2316 76.152H49.9596ZM51.2017 76.536C51.2017 77.032 51.2877 77.396 51.4597 77.628C51.6357 77.86 51.8657 77.976 52.1497 77.976C52.5497 77.976 52.9057 77.916 53.2177 77.796L53.2357 77.838C52.9157 77.962 52.5537 78.024 52.1497 78.024C51.7497 78.024 51.4237 77.904 51.1717 77.664C50.9197 77.424 50.7937 77.054 50.7937 76.554C50.7937 76.054 50.9257 75.666 51.1897 75.39C51.4537 75.114 51.7897 74.976 52.1977 74.976C52.5257 74.976 52.8017 75.074 53.0257 75.27C53.2497 75.466 53.3617 75.756 53.3617 76.14C53.3617 76.16 53.3617 76.18 53.3617 76.2H51.2197C51.2077 76.308 51.2017 76.42 51.2017 76.536ZM52.9537 76.152C52.9497 75.768 52.8757 75.484 52.7317 75.3C52.5877 75.116 52.4017 75.024 52.1737 75.024C51.9457 75.024 51.7417 75.124 51.5617 75.324C51.3857 75.524 51.2737 75.8 51.2257 76.152H52.9537ZM56.9848 75.024C56.7008 75.024 56.4628 75.16 56.2708 75.432C56.0828 75.704 55.9888 76.08 55.9888 76.56C55.9888 77.04 56.0748 77.396 56.2468 77.628C56.4228 77.86 56.6528 77.976 56.9368 77.976C57.2928 77.976 57.6088 77.916 57.8848 77.796L57.9028 77.838C57.6188 77.962 57.2868 78.024 56.9068 78.024C56.5268 78.024 56.2108 77.904 55.9588 77.664C55.7068 77.424 55.5808 77.054 55.5808 76.554C55.5808 76.054 55.7128 75.666 55.9768 75.39C56.2408 75.114 56.5768 74.976 56.9848 74.976C57.2128 74.976 57.4228 75.028 57.6148 75.132C57.8108 75.236 57.9548 75.394 58.0468 75.606H57.6628C57.6028 75.41 57.5108 75.264 57.3868 75.168C57.2668 75.072 57.1328 75.024 56.9848 75.024ZM58.8189 76.536C58.8189 77.032 58.9049 77.396 59.0769 77.628C59.2529 77.86 59.4829 77.976 59.7669 77.976C60.1669 77.976 60.5229 77.916 60.8349 77.796L60.8529 77.838C60.5329 77.962 60.1709 78.024 59.7669 78.024C59.3669 78.024 59.0409 77.904 58.7889 77.664C58.5369 77.424 58.4109 77.054 58.4109 76.554C58.4109 76.054 58.5429 75.666 58.8069 75.39C59.0709 75.114 59.4069 74.976 59.8149 74.976C60.1429 74.976 60.4189 75.074 60.6429 75.27C60.8669 75.466 60.9789 75.756 60.9789 76.14C60.9789 76.16 60.9789 76.18 60.9789 76.2H58.8369C58.8249 76.308 58.8189 76.42 58.8189 76.536ZM60.5709 76.152C60.5669 75.768 60.4929 75.484 60.3489 75.3C60.2049 75.116 60.0189 75.024 59.7909 75.024C59.5629 75.024 59.3589 75.124 59.1789 75.324C59.0029 75.524 58.8909 75.8 58.8429 76.152H60.5709ZM63.7134 78C63.5494 78 63.4234 77.964 63.3354 77.892C63.2514 77.82 63.2074 77.748 63.2034 77.676L63.1974 77.574V75.69C63.1974 75.374 63.1154 75.172 62.9514 75.084C62.8674 75.044 62.7634 75.024 62.6394 75.024C62.3834 75.024 62.1534 75.126 61.9494 75.33C61.7454 75.53 61.6434 75.71 61.6434 75.87V78H61.2234V75H61.6434V75.684C61.7114 75.512 61.8374 75.352 62.0214 75.204C62.2054 75.052 62.4074 74.976 62.6274 74.976C62.8474 74.976 63.0254 74.998 63.1614 75.042C63.3014 75.082 63.4034 75.14 63.4674 75.216C63.5674 75.34 63.6174 75.5 63.6174 75.696V77.574C63.6174 77.69 63.6394 77.78 63.6834 77.844C63.7314 77.904 63.7794 77.936 63.8274 77.94L63.8934 77.952H64.0794V78H63.7134ZM64.3516 75.048V75H64.4776V74.4H64.8976V75H65.8156V75.048H64.8976V77.232C64.8976 77.492 64.9256 77.68 64.9816 77.796C65.0416 77.912 65.1636 77.97 65.3476 77.97C65.5356 77.97 65.7256 77.932 65.9176 77.856L65.9356 77.904C65.7356 77.98 65.5056 78.018 65.2456 78.018C64.9896 78.018 64.7976 77.966 64.6696 77.862C64.5416 77.754 64.4776 77.542 64.4776 77.226V75.048H64.3516ZM66.6119 76.536C66.6119 77.032 66.6979 77.396 66.8699 77.628C67.0459 77.86 67.2759 77.976 67.5599 77.976C67.9599 77.976 68.3159 77.916 68.6279 77.796L68.6459 77.838C68.3259 77.962 67.9639 78.024 67.5599 78.024C67.1599 78.024 66.8339 77.904 66.5819 77.664C66.3299 77.424 66.2039 77.054 66.2039 76.554C66.2039 76.054 66.3359 75.666 66.5999 75.39C66.8639 75.114 67.1999 74.976 67.6079 74.976C67.9359 74.976 68.2119 75.074 68.4359 75.27C68.6599 75.466 68.7719 75.756 68.7719 76.14C68.7719 76.16 68.7719 76.18 68.7719 76.2H66.6299C66.6179 76.308 66.6119 76.42 66.6119 76.536ZM68.3639 76.152C68.3599 75.768 68.2859 75.484 68.1419 75.3C67.9979 75.116 67.8119 75.024 67.5839 75.024C67.3559 75.024 67.1519 75.124 66.9719 75.324C66.7959 75.524 66.6839 75.8 66.6359 76.152H68.3639ZM70.1624 75.258V75.132C69.9824 75.204 69.8184 75.35 69.6704 75.57C69.5224 75.786 69.4444 75.99 69.4364 76.182V78H69.0164V75H69.4364V75.954C69.5004 75.722 69.6224 75.504 69.8024 75.3C69.9824 75.092 70.1864 74.984 70.4144 74.976H70.4384C70.5184 74.976 70.5844 75.004 70.6364 75.06C70.6924 75.112 70.7204 75.178 70.7204 75.258C70.7204 75.338 70.6924 75.404 70.6364 75.456C70.5844 75.508 70.5184 75.534 70.4384 75.534C70.3584 75.534 70.2924 75.508 70.2404 75.456C70.1884 75.404 70.1624 75.338 70.1624 75.258Z" fill="#6F4E37"/>
<path d="M28.1036 2.6V7.904L31.9796 2.6L32.0756 2.684L29.9276 5.612L33.1196 11H32.0036L29.3156 6.452L28.1036 8.12V11H27.1076V2.6H28.1036ZM38.9106 11C38.3666 11 37.9946 10.896 37.7946 10.688C37.6106 10.512 37.5186 10.36 37.5186 10.232V9.98C37.1266 10.692 36.4986 11.048 35.6346 11.048C34.6266 11.048 34.0546 10.592 33.9186 9.68C33.9026 9.584 33.8946 9.488 33.8946 9.392C33.8946 9.288 33.9106 9.176 33.9426 9.056C33.9746 8.936 34.0666 8.804 34.2186 8.66C34.5226 8.372 35.1906 8.196 36.2226 8.132C36.4786 8.108 36.7146 8.096 36.9306 8.096C37.1466 8.096 37.3426 8.104 37.5186 8.12V6.128C37.5026 6.12 37.5026 6.084 37.5186 6.02C37.5346 5.948 37.5186 5.86 37.4706 5.756C37.4306 5.644 37.3746 5.536 37.3026 5.432C37.2306 5.328 37.1026 5.24 36.9186 5.168C36.7346 5.088 36.4946 5.048 36.1986 5.048C35.9026 5.048 35.5546 5.104 35.1546 5.216C34.7626 5.32 34.4746 5.424 34.2906 5.528L34.2426 5.444C34.9546 5.116 35.6786 4.952 36.4146 4.952C37.2386 4.952 37.7826 5.1 38.0466 5.396C38.2546 5.628 38.3586 5.872 38.3586 6.128V10.148C38.3586 10.38 38.4026 10.56 38.4906 10.688C38.5866 10.808 38.6826 10.872 38.7786 10.88L38.9106 10.904H39.2826V11H38.9106ZM35.8266 10.952C36.2506 10.952 36.6306 10.808 36.9666 10.52C37.3106 10.224 37.4946 9.94 37.5186 9.668V8.216C37.3026 8.2 37.0826 8.192 36.8586 8.192C36.6426 8.192 36.4266 8.204 36.2106 8.228C35.6026 8.3 35.2066 8.436 35.0226 8.636C34.8386 8.836 34.7466 9.112 34.7466 9.464C34.7466 9.528 34.7506 9.6 34.7586 9.68C34.8306 10.528 35.1866 10.952 35.8266 10.952ZM40.0629 5H40.9029V6.488C41.0389 6.12 41.2909 5.772 41.6589 5.444C42.0269 5.116 42.4429 4.952 42.9069 4.952C44.5309 4.952 45.3429 5.904 45.3429 7.808C45.3429 9.968 44.2949 11.048 42.1989 11.048C41.8229 11.048 41.3909 10.96 40.9029 10.784V14H40.0629V5ZM42.8949 5.048C42.3989 5.048 41.9509 5.264 41.5509 5.696C41.1509 6.12 40.9349 6.504 40.9029 6.848V10.676C41.3909 10.86 41.8189 10.952 42.1869 10.952C43.7309 10.952 44.5029 9.9 44.5029 7.796C44.5029 5.964 43.9669 5.048 42.8949 5.048ZM46.4262 5H47.2662V6.488C47.4022 6.12 47.6542 5.772 48.0222 5.444C48.3902 5.116 48.8062 4.952 49.2702 4.952C50.8942 4.952 51.7062 5.904 51.7062 7.808C51.7062 9.968 50.6582 11.048 48.5622 11.048C48.1862 11.048 47.7542 10.96 47.2662 10.784V14H46.4262V5ZM49.2582 5.048C48.7622 5.048 48.3142 5.264 47.9142 5.696C47.5142 6.12 47.2982 6.504 47.2662 6.848V10.676C47.7542 10.86 48.1822 10.952 48.5502 10.952C50.0942 10.952 50.8662 9.9 50.8662 7.796C50.8662 5.964 50.3302 5.048 49.2582 5.048ZM53.4855 8.072C53.4855 9.064 53.6575 9.792 54.0015 10.256C54.3535 10.72 54.8135 10.952 55.3815 10.952C56.1815 10.952 56.8935 10.832 57.5175 10.592L57.5535 10.676C56.9135 10.924 56.1895 11.048 55.3815 11.048C54.5815 11.048 53.9295 10.808 53.4255 10.328C52.9215 9.848 52.6695 9.108 52.6695 8.108C52.6695 7.108 52.9335 6.332 53.4615 5.78C53.9895 5.228 54.6615 4.952 55.4775 4.952C56.1335 4.952 56.6855 5.148 57.1335 5.54C57.5815 5.932 57.8055 6.512 57.8055 7.28C57.8055 7.32 57.8055 7.36 57.8055 7.4H53.5215C53.4975 7.616 53.4855 7.84 53.4855 8.072ZM56.9895 7.304C56.9815 6.536 56.8335 5.968 56.5455 5.6C56.2575 5.232 55.8855 5.048 55.4295 5.048C54.9735 5.048 54.5655 5.248 54.2055 5.648C53.8535 6.048 53.6295 6.6 53.5335 7.304H56.9895ZM59.5185 11C59.1905 11 58.9385 10.928 58.7625 10.784C58.5945 10.64 58.5065 10.496 58.4985 10.352L58.4865 10.148V5H59.3265V10.148C59.3265 10.38 59.3705 10.56 59.4585 10.688C59.5545 10.808 59.6465 10.872 59.7345 10.88L59.8785 10.904H60.2505V11H59.5185ZM58.5585 3.656C58.4625 3.56 58.4145 3.44 58.4145 3.296C58.4145 3.152 58.4625 3.032 58.5585 2.936C58.6545 2.832 58.7745 2.78 58.9185 2.78C59.0625 2.78 59.1825 2.832 59.2785 2.936C59.3825 3.032 59.4345 3.152 59.4345 3.296C59.4345 3.44 59.3825 3.56 59.2785 3.656C59.1825 3.752 59.0625 3.8 58.9185 3.8C58.7745 3.8 58.6545 3.752 58.5585 3.656Z" fill="#6F4E37"/>
</svg>
